<svg xmlns="http://www.w3.org/2000/svg" xmlns:xlink="http://www.w3.org/1999/xlink" width="500" zoomAndPan="magnify" viewBox="0 0 375 374.999991" height="500" preserveAspectRatio="xMidYMid meet" version="1.0"><path fill="#ffffff" d="M 306.617188 188.074219 L 367.996094 126.628906 C 368.371094 126.253906 368.726562 125.863281 369.0625 125.453125 C 369.398438 125.042969 369.714844 124.617188 370.011719 124.175781 C 370.304688 123.734375 370.578125 123.28125 370.828125 122.8125 C 371.078125 122.34375 371.300781 121.863281 371.503906 121.375 C 371.707031 120.882812 371.886719 120.386719 372.039062 119.878906 C 372.195312 119.371094 372.324219 118.855469 372.425781 118.335938 C 372.53125 117.816406 372.609375 117.289062 372.660156 116.761719 C 372.710938 116.234375 372.738281 115.707031 372.738281 115.175781 C 372.738281 114.644531 372.710938 114.113281 372.660156 113.585938 C 372.609375 113.058594 372.53125 112.535156 372.425781 112.015625 C 372.324219 111.492188 372.195312 110.980469 372.039062 110.472656 C 371.886719 109.964844 371.707031 109.464844 371.503906 108.976562 C 371.300781 108.484375 371.078125 108.007812 370.828125 107.539062 C 370.578125 107.070312 370.304688 106.617188 370.011719 106.175781 C 369.714844 105.734375 369.398438 105.308594 369.0625 104.898438 C 368.726562 104.488281 368.371094 104.09375 367.996094 103.71875 C 367.621094 103.34375 367.230469 102.988281 366.820312 102.652344 C 366.410156 102.316406 365.984375 102 365.546875 101.707031 C 365.105469 101.410156 364.652344 101.136719 364.183594 100.886719 C 363.714844 100.636719 363.238281 100.410156 362.746094 100.207031 C 362.257812 100.003906 361.757812 99.828125 361.253906 99.671875 C 360.746094 99.519531 360.230469 99.390625 359.710938 99.285156 C 359.191406 99.183594 358.667969 99.105469 358.140625 99.054688 C 357.613281 99 357.085938 98.976562 356.554688 98.976562 C 356.023438 98.976562 355.496094 99 354.96875 99.054688 C 354.441406 99.105469 353.917969 99.183594 353.398438 99.285156 C 352.878906 99.390625 352.363281 99.519531 351.855469 99.671875 C 351.351562 99.828125 350.851562 100.003906 350.363281 100.207031 C 349.871094 100.410156 349.394531 100.636719 348.925781 100.886719 C 348.457031 101.136719 348.003906 101.410156 347.5625 101.707031 C 347.125 102 346.699219 102.316406 346.289062 102.652344 C 345.878906 102.988281 345.488281 103.34375 345.113281 103.71875 L 283.734375 165.164062 L 222.355469 103.71875 C 221.980469 103.34375 221.585938 102.988281 221.175781 102.652344 C 220.769531 102.316406 220.34375 102 219.902344 101.707031 C 219.460938 101.410156 219.007812 101.136719 218.539062 100.886719 C 218.074219 100.636719 217.59375 100.410156 217.105469 100.207031 C 216.613281 100.003906 216.117188 99.828125 215.609375 99.671875 C 215.101562 99.519531 214.589844 99.390625 214.070312 99.285156 C 213.546875 99.183594 213.023438 99.105469 212.496094 99.054688 C 211.96875 99 211.441406 98.976562 210.910156 98.976562 C 210.382812 98.976562 209.851562 99 209.324219 99.054688 C 208.796875 99.105469 208.273438 99.183594 207.753906 99.285156 C 207.234375 99.390625 206.722656 99.519531 206.214844 99.671875 C 205.707031 99.828125 205.207031 100.003906 204.71875 100.207031 C 204.230469 100.410156 203.75 100.636719 203.28125 100.886719 C 202.816406 101.136719 202.363281 101.410156 201.921875 101.707031 C 201.480469 102 201.054688 102.316406 200.644531 102.652344 C 200.234375 102.988281 199.84375 103.34375 199.46875 103.71875 C 199.09375 104.09375 198.738281 104.488281 198.402344 104.898438 C 198.066406 105.308594 197.75 105.734375 197.457031 106.175781 C 197.160156 106.617188 196.890625 107.070312 196.640625 107.539062 C 196.390625 108.007812 196.164062 108.484375 195.960938 108.976562 C 195.757812 109.464844 195.578125 109.964844 195.425781 110.472656 C 195.273438 110.980469 195.144531 111.492188 195.039062 112.015625 C 194.9375 112.535156 194.859375 113.058594 194.808594 113.585938 C 194.753906 114.113281 194.730469 114.644531 194.730469 115.175781 C 194.730469 115.707031 194.753906 116.234375 194.808594 116.761719 C 194.859375 117.289062 194.9375 117.816406 195.039062 118.335938 C 195.144531 118.855469 195.273438 119.371094 195.425781 119.878906 C 195.578125 120.386719 195.757812 120.882812 195.960938 121.375 C 196.164062 121.863281 196.390625 122.34375 196.640625 122.8125 C 196.890625 123.28125 197.160156 123.734375 197.457031 124.175781 C 197.75 124.617188 198.066406 125.042969 198.402344 125.453125 C 198.738281 125.863281 199.09375 126.253906 199.46875 126.628906 L 260.847656 188.074219 L 199.46875 249.519531 C 199.09375 249.894531 198.738281 250.289062 198.402344 250.699219 C 198.066406 251.109375 197.75 251.535156 197.457031 251.976562 C 197.160156 252.417969 196.890625 252.871094 196.640625 253.339844 C 196.390625 253.808594 196.164062 254.285156 195.960938 254.777344 C 195.757812 255.265625 195.578125 255.765625 195.425781 256.273438 C 195.273438 256.78125 195.144531 257.292969 195.039062 257.816406 C 194.9375 258.335938 194.859375 258.859375 194.804688 259.386719 C 194.753906 259.914062 194.730469 260.445312 194.730469 260.976562 C 194.730469 261.507812 194.753906 262.035156 194.804688 262.5625 C 194.859375 263.089844 194.9375 263.617188 195.039062 264.136719 C 195.144531 264.65625 195.273438 265.171875 195.425781 265.679688 C 195.578125 266.1875 195.757812 266.683594 195.960938 267.175781 C 196.164062 267.664062 196.390625 268.144531 196.640625 268.613281 C 196.890625 269.082031 197.160156 269.535156 197.457031 269.976562 C 197.75 270.417969 198.066406 270.84375 198.402344 271.253906 C 198.738281 271.664062 199.09375 272.054688 199.46875 272.429688 C 199.84375 272.804688 200.234375 273.160156 200.644531 273.5 C 201.054688 273.835938 201.480469 274.152344 201.921875 274.445312 C 202.363281 274.738281 202.816406 275.011719 203.28125 275.261719 C 203.75 275.511719 204.230469 275.738281 204.71875 275.941406 C 205.207031 276.144531 205.707031 276.324219 206.214844 276.476562 C 206.722656 276.632812 207.234375 276.761719 207.753906 276.863281 C 208.273438 276.96875 208.796875 277.046875 209.324219 277.097656 C 209.851562 277.148438 210.382812 277.175781 210.910156 277.175781 C 211.441406 277.175781 211.96875 277.148438 212.496094 277.097656 C 213.023438 277.046875 213.546875 276.96875 214.066406 276.863281 C 214.589844 276.761719 215.101562 276.632812 215.609375 276.476562 C 216.117188 276.324219 216.613281 276.144531 217.105469 275.941406 C 217.59375 275.738281 218.074219 275.511719 218.539062 275.261719 C 219.007812 275.011719 219.460938 274.738281 219.902344 274.445312 C 220.34375 274.152344 220.769531 273.835938 221.175781 273.5 C 221.585938 273.160156 221.980469 272.804688 222.355469 272.429688 L 283.734375 210.984375 L 345.113281 272.429688 C 345.488281 272.804688 345.878906 273.160156 346.289062 273.496094 C 346.699219 273.832031 347.125 274.148438 347.5625 274.441406 C 348.003906 274.738281 348.460938 275.007812 348.925781 275.257812 C 349.394531 275.507812 349.871094 275.734375 350.363281 275.9375 C 350.851562 276.140625 351.347656 276.316406 351.855469 276.472656 C 352.363281 276.625 352.875 276.753906 353.394531 276.855469 C 353.917969 276.960938 354.441406 277.039062 354.964844 277.089844 C 355.492188 277.140625 356.023438 277.167969 356.550781 277.167969 C 357.082031 277.167969 357.609375 277.140625 358.136719 277.089844 C 358.664062 277.035156 359.1875 276.957031 359.707031 276.855469 C 360.226562 276.75 360.742188 276.621094 361.246094 276.46875 C 361.753906 276.3125 362.253906 276.136719 362.742188 275.933594 C 363.230469 275.730469 363.710938 275.503906 364.175781 275.253906 C 364.644531 275.003906 365.097656 274.730469 365.539062 274.4375 C 365.976562 274.140625 366.402344 273.824219 366.8125 273.488281 C 367.222656 273.152344 367.613281 272.796875 367.988281 272.421875 C 368.363281 272.046875 368.71875 271.65625 369.054688 271.246094 C 369.390625 270.835938 369.707031 270.410156 370 269.96875 C 370.292969 269.527344 370.566406 269.074219 370.816406 268.605469 C 371.066406 268.136719 371.292969 267.660156 371.496094 267.167969 C 371.699219 266.679688 371.875 266.179688 372.03125 265.671875 C 372.183594 265.164062 372.3125 264.652344 372.417969 264.132812 C 372.519531 263.613281 372.597656 263.085938 372.648438 262.558594 C 372.703125 262.03125 372.726562 261.503906 372.730469 260.972656 C 372.730469 260.441406 372.703125 259.914062 372.652344 259.386719 C 372.601562 258.859375 372.523438 258.335938 372.417969 257.8125 C 372.316406 257.292969 372.1875 256.78125 372.035156 256.273438 C 371.878906 255.765625 371.703125 255.265625 371.5 254.777344 C 371.296875 254.285156 371.070312 253.808594 370.824219 253.339844 C 370.574219 252.871094 370.300781 252.417969 370.007812 251.976562 C 369.714844 251.535156 369.398438 251.109375 369.0625 250.699219 C 368.726562 250.289062 368.371094 249.894531 367.996094 249.519531 Z M 306.617188 188.074219 " fill-opacity="1" fill-rule="nonzero"/><path fill="#ffffff" d="M 160.167969 27.21875 C 159.40625 26.925781 158.632812 26.695312 157.839844 26.523438 C 157.046875 26.347656 156.242188 26.238281 155.433594 26.183594 C 154.621094 26.132812 153.8125 26.140625 153.003906 26.210938 C 152.195312 26.28125 151.394531 26.410156 150.605469 26.601562 C 149.816406 26.792969 149.046875 27.039062 148.292969 27.347656 C 147.542969 27.652344 146.816406 28.015625 146.121094 28.429688 C 145.421875 28.847656 144.757812 29.3125 144.132812 29.828125 C 143.503906 30.34375 142.917969 30.902344 142.375 31.507812 L 74.367188 107.121094 L 16.867188 107.121094 C 16.339844 107.121094 15.808594 107.144531 15.28125 107.199219 C 14.757812 107.25 14.234375 107.328125 13.714844 107.429688 C 13.195312 107.535156 12.679688 107.664062 12.171875 107.816406 C 11.667969 107.972656 11.167969 108.148438 10.679688 108.351562 C 10.191406 108.554688 9.710938 108.78125 9.242188 109.03125 C 8.777344 109.28125 8.324219 109.554688 7.882812 109.847656 C 7.441406 110.144531 7.015625 110.457031 6.609375 110.796875 C 6.199219 111.132812 5.804688 111.488281 5.433594 111.863281 C 5.058594 112.238281 4.703125 112.628906 4.367188 113.039062 C 4.03125 113.449219 3.714844 113.875 3.421875 114.316406 C 3.125 114.757812 2.855469 115.210938 2.605469 115.679688 C 2.355469 116.144531 2.128906 116.625 1.925781 117.113281 C 1.722656 117.605469 1.542969 118.105469 1.390625 118.609375 C 1.238281 119.117188 1.109375 119.632812 1.003906 120.152344 C 0.902344 120.671875 0.824219 121.195312 0.773438 121.722656 C 0.71875 122.25 0.695312 122.78125 0.695312 123.3125 L 0.695312 260.933594 C 0.695312 261.464844 0.71875 261.996094 0.773438 262.523438 C 0.824219 263.050781 0.902344 263.574219 1.003906 264.09375 C 1.109375 264.613281 1.238281 265.128906 1.390625 265.636719 C 1.542969 266.140625 1.722656 266.640625 1.925781 267.132812 C 2.128906 267.621094 2.355469 268.101562 2.605469 268.566406 C 2.855469 269.035156 3.125 269.488281 3.421875 269.929688 C 3.714844 270.371094 4.03125 270.796875 4.367188 271.207031 C 4.703125 271.617188 5.058594 272.007812 5.433594 272.382812 C 5.804688 272.757812 6.199219 273.113281 6.609375 273.449219 C 7.015625 273.789062 7.441406 274.101562 7.882812 274.398438 C 8.324219 274.691406 8.777344 274.964844 9.242188 275.214844 C 9.710938 275.464844 10.191406 275.691406 10.679688 275.894531 C 11.167969 276.097656 11.667969 276.273438 12.171875 276.429688 C 12.679688 276.582031 13.195312 276.710938 13.714844 276.816406 C 14.234375 276.917969 14.757812 276.996094 15.28125 277.046875 C 15.808594 277.101562 16.339844 277.125 16.867188 277.125 L 74.851562 277.125 L 142.859375 345.210938 C 143.421875 345.777344 144.023438 346.296875 144.660156 346.777344 C 145.296875 347.253906 145.96875 347.683594 146.671875 348.058594 C 147.371094 348.4375 148.097656 348.765625 148.847656 349.035156 C 149.597656 349.304688 150.363281 349.519531 151.144531 349.679688 C 151.925781 349.835938 152.714844 349.9375 153.507812 349.976562 C 154.304688 350.019531 155.097656 350 155.894531 349.925781 C 156.6875 349.847656 157.46875 349.714844 158.242188 349.519531 C 159.015625 349.328125 159.773438 349.082031 160.507812 348.777344 C 161.246094 348.472656 161.957031 348.117188 162.640625 347.707031 C 163.324219 347.296875 163.976562 346.839844 164.589844 346.335938 C 165.207031 345.828125 165.785156 345.28125 166.320312 344.691406 C 166.855469 344.097656 167.34375 343.472656 167.789062 342.808594 C 168.230469 342.144531 168.625 341.453125 168.964844 340.730469 C 169.304688 340.011719 169.589844 339.269531 169.820312 338.503906 C 170.054688 337.742188 170.226562 336.964844 170.34375 336.175781 C 170.460938 335.386719 170.519531 334.59375 170.519531 333.792969 L 170.519531 42.355469 C 170.519531 41.542969 170.460938 40.730469 170.339844 39.925781 C 170.21875 39.121094 170.039062 38.328125 169.800781 37.550781 C 169.558594 36.773438 169.261719 36.019531 168.910156 35.285156 C 168.554688 34.550781 168.148438 33.847656 167.691406 33.175781 C 167.230469 32.503906 166.722656 31.871094 166.167969 31.277344 C 165.613281 30.679688 165.019531 30.132812 164.378906 29.625 C 163.742188 29.121094 163.070312 28.664062 162.363281 28.261719 C 161.65625 27.859375 160.925781 27.511719 160.167969 27.21875 Z M 138.171875 294.695312 L 92.964844 249.4375 C 91.449219 247.933594 89.703125 246.773438 87.726562 245.960938 C 85.753906 245.148438 83.699219 244.742188 81.5625 244.742188 L 33.042969 244.742188 L 33.042969 139.503906 L 81.5625 139.503906 C 82.699219 139.503906 83.820312 139.390625 84.933594 139.15625 C 86.042969 138.921875 87.117188 138.574219 88.15625 138.113281 C 89.195312 137.65625 90.171875 137.089844 91.09375 136.425781 C 92.011719 135.757812 92.851562 135.003906 93.613281 134.160156 L 138.171875 84.535156 L 138.171875 295.015625 Z M 138.171875 294.695312 " fill-opacity="1" fill-rule="nonzero"/></svg>