<svg xmlns="http://www.w3.org/2000/svg" xmlns:xlink="http://www.w3.org/1999/xlink" width="500" zoomAndPan="magnify" viewBox="0 0 375 374.999991" height="500" preserveAspectRatio="xMidYMid meet" version="1.0"><path fill="#ffffff" d="M 160.976562 27.21875 C 160.214844 26.925781 159.441406 26.695312 158.648438 26.523438 C 157.855469 26.347656 157.050781 26.238281 156.242188 26.183594 C 155.429688 26.132812 154.621094 26.140625 153.8125 26.210938 C 153.003906 26.28125 152.203125 26.410156 151.414062 26.601562 C 150.625 26.792969 149.855469 27.039062 149.101562 27.347656 C 148.351562 27.652344 147.625 28.015625 146.929688 28.429688 C 146.230469 28.847656 145.566406 29.3125 144.941406 29.828125 C 144.3125 30.34375 143.726562 30.902344 143.183594 31.507812 L 75.175781 107.121094 L 17.675781 107.121094 C 17.148438 107.121094 16.617188 107.144531 16.089844 107.199219 C 15.566406 107.25 15.042969 107.328125 14.523438 107.429688 C 14.003906 107.535156 13.488281 107.664062 12.980469 107.816406 C 12.476562 107.972656 11.976562 108.148438 11.488281 108.351562 C 11 108.554688 10.519531 108.78125 10.054688 109.03125 C 9.585938 109.28125 9.132812 109.554688 8.691406 109.847656 C 8.25 110.144531 7.824219 110.457031 7.417969 110.796875 C 7.007812 111.132812 6.613281 111.488281 6.242188 111.863281 C 5.867188 112.238281 5.511719 112.628906 5.175781 113.039062 C 4.839844 113.449219 4.523438 113.875 4.230469 114.316406 C 3.933594 114.757812 3.664062 115.210938 3.414062 115.679688 C 3.164062 116.144531 2.9375 116.625 2.734375 117.113281 C 2.53125 117.605469 2.355469 118.105469 2.199219 118.609375 C 2.046875 119.117188 1.917969 119.632812 1.8125 120.152344 C 1.710938 120.671875 1.632812 121.195312 1.582031 121.722656 C 1.53125 122.25 1.503906 122.78125 1.503906 123.3125 L 1.503906 260.933594 C 1.503906 261.464844 1.53125 261.996094 1.582031 262.523438 C 1.632812 263.050781 1.710938 263.574219 1.8125 264.09375 C 1.917969 264.613281 2.046875 265.128906 2.199219 265.636719 C 2.355469 266.140625 2.53125 266.640625 2.734375 267.132812 C 2.9375 267.621094 3.164062 268.101562 3.414062 268.566406 C 3.664062 269.035156 3.933594 269.488281 4.230469 269.929688 C 4.523438 270.371094 4.839844 270.796875 5.175781 271.207031 C 5.511719 271.617188 5.867188 272.007812 6.242188 272.382812 C 6.613281 272.757812 7.007812 273.113281 7.417969 273.449219 C 7.824219 273.789062 8.25 274.101562 8.691406 274.398438 C 9.132812 274.691406 9.585938 274.964844 10.054688 275.214844 C 10.519531 275.464844 11 275.691406 11.488281 275.894531 C 11.976562 276.097656 12.476562 276.273438 12.980469 276.429688 C 13.488281 276.582031 14.003906 276.710938 14.523438 276.816406 C 15.042969 276.917969 15.566406 276.996094 16.089844 277.046875 C 16.617188 277.101562 17.148438 277.125 17.675781 277.125 L 75.660156 277.125 L 143.667969 345.210938 C 144.230469 345.777344 144.832031 346.296875 145.46875 346.777344 C 146.105469 347.253906 146.777344 347.683594 147.480469 348.058594 C 148.179688 348.4375 148.90625 348.765625 149.65625 349.035156 C 150.40625 349.304688 151.171875 349.519531 151.953125 349.679688 C 152.734375 349.835938 153.523438 349.9375 154.316406 349.976562 C 155.113281 350.019531 155.910156 350 156.703125 349.925781 C 157.496094 349.847656 158.277344 349.714844 159.050781 349.519531 C 159.824219 349.328125 160.582031 349.082031 161.316406 348.777344 C 162.054688 348.472656 162.765625 348.117188 163.449219 347.707031 C 164.132812 347.296875 164.785156 346.839844 165.398438 346.335938 C 166.015625 345.828125 166.59375 345.28125 167.128906 344.691406 C 167.664062 344.097656 168.152344 343.472656 168.597656 342.808594 C 169.039062 342.144531 169.433594 341.453125 169.773438 340.730469 C 170.113281 340.011719 170.398438 339.269531 170.628906 338.503906 C 170.863281 337.742188 171.035156 336.964844 171.152344 336.175781 C 171.269531 335.386719 171.328125 334.59375 171.328125 333.792969 L 171.328125 42.355469 C 171.328125 41.542969 171.269531 40.730469 171.148438 39.925781 C 171.027344 39.121094 170.847656 38.328125 170.609375 37.550781 C 170.367188 36.773438 170.070312 36.019531 169.71875 35.285156 C 169.363281 34.550781 168.957031 33.847656 168.5 33.175781 C 168.039062 32.503906 167.53125 31.871094 166.976562 31.277344 C 166.421875 30.679688 165.828125 30.132812 165.1875 29.625 C 164.550781 29.121094 163.878906 28.664062 163.171875 28.261719 C 162.464844 27.859375 161.734375 27.511719 160.976562 27.21875 Z M 138.980469 294.691406 L 93.773438 249.4375 C 92.257812 247.933594 90.511719 246.773438 88.539062 245.960938 C 86.5625 245.148438 84.507812 244.742188 82.371094 244.742188 L 33.851562 244.742188 L 33.851562 139.503906 L 82.371094 139.503906 C 83.507812 139.503906 84.628906 139.390625 85.742188 139.15625 C 86.851562 138.921875 87.925781 138.574219 88.964844 138.113281 C 90.003906 137.65625 90.980469 137.089844 91.902344 136.425781 C 92.820312 135.757812 93.660156 135.003906 94.421875 134.160156 L 138.980469 84.535156 L 138.980469 295.015625 Z M 138.980469 294.691406 " fill-opacity="1" fill-rule="nonzero"/><path fill="#ffffff" d="M 264.648438 74.738281 C 264.273438 74.363281 263.878906 74.007812 263.46875 73.671875 C 263.058594 73.335938 262.628906 73.023438 262.1875 72.726562 C 261.746094 72.433594 261.292969 72.164062 260.824219 71.914062 C 260.355469 71.664062 259.875 71.441406 259.386719 71.238281 C 258.894531 71.035156 258.394531 70.859375 257.886719 70.707031 C 257.378906 70.554688 256.867188 70.425781 256.34375 70.324219 C 255.824219 70.222656 255.300781 70.148438 254.773438 70.097656 C 254.246094 70.046875 253.714844 70.019531 253.183594 70.023438 C 252.65625 70.023438 252.125 70.050781 251.597656 70.105469 C 251.070312 70.160156 250.546875 70.238281 250.027344 70.34375 C 249.507812 70.449219 248.996094 70.578125 248.488281 70.734375 C 247.980469 70.890625 247.480469 71.070312 246.992188 71.277344 C 246.503906 71.480469 246.027344 71.710938 245.558594 71.960938 C 245.09375 72.214844 244.636719 72.488281 244.199219 72.785156 C 243.757812 73.082031 243.335938 73.398438 242.925781 73.734375 C 242.515625 74.074219 242.125 74.429688 241.753906 74.808594 C 241.378906 75.183594 241.023438 75.578125 240.6875 75.992188 C 240.355469 76.402344 240.039062 76.828125 239.746094 77.273438 C 239.453125 77.714844 239.183594 78.171875 238.933594 78.640625 C 238.6875 79.109375 238.460938 79.589844 238.261719 80.078125 C 238.058594 80.570312 237.882812 81.070312 237.730469 81.578125 C 237.578125 82.089844 237.453125 82.601562 237.351562 83.125 C 237.25 83.644531 237.175781 84.171875 237.125 84.699219 C 237.074219 85.226562 237.050781 85.757812 237.050781 86.289062 C 237.054688 86.820312 237.082031 87.347656 237.136719 87.875 C 237.191406 88.402344 237.269531 88.929688 237.375 89.449219 C 237.480469 89.96875 237.613281 90.484375 237.769531 90.988281 C 237.925781 91.496094 238.105469 91.996094 238.3125 92.484375 C 238.515625 92.976562 238.746094 93.453125 238.996094 93.921875 C 239.25 94.386719 239.523438 94.839844 239.820312 95.28125 C 240.117188 95.722656 240.433594 96.144531 240.769531 96.554688 C 241.109375 96.964844 241.464844 97.355469 241.84375 97.730469 C 243.335938 99.207031 244.789062 100.722656 246.207031 102.273438 C 247.625 103.824219 249.003906 105.410156 250.34375 107.03125 C 251.679688 108.648438 252.980469 110.300781 254.238281 111.984375 C 255.496094 113.667969 256.710938 115.382812 257.882812 117.125 C 259.054688 118.871094 260.183594 120.640625 261.269531 122.441406 C 262.355469 124.242188 263.398438 126.066406 264.394531 127.917969 C 265.386719 129.769531 266.335938 131.640625 267.242188 133.539062 C 268.144531 135.4375 269 137.359375 269.808594 139.296875 C 270.617188 141.238281 271.375 143.195312 272.085938 145.175781 C 272.800781 147.152344 273.460938 149.148438 274.074219 151.15625 C 274.6875 153.167969 275.25 155.191406 275.765625 157.230469 C 276.277344 159.269531 276.742188 161.320312 277.152344 163.382812 C 277.566406 165.441406 277.925781 167.511719 278.238281 169.59375 C 278.546875 171.671875 278.804688 173.757812 279.011719 175.847656 C 279.21875 177.941406 279.375 180.035156 279.476562 182.136719 C 279.582031 184.234375 279.632812 186.335938 279.632812 188.441406 C 279.632812 190.542969 279.582031 192.644531 279.476562 194.742188 C 279.375 196.84375 279.21875 198.9375 279.011719 201.03125 C 278.804688 203.121094 278.546875 205.207031 278.238281 207.285156 C 277.925781 209.367188 277.566406 211.4375 277.152344 213.496094 C 276.742188 215.558594 276.277344 217.609375 275.765625 219.648438 C 275.25 221.6875 274.6875 223.710938 274.074219 225.722656 C 273.460938 227.730469 272.800781 229.726562 272.085938 231.703125 C 271.375 233.683594 270.617188 235.640625 269.808594 237.582031 C 269 239.519531 268.144531 241.441406 267.242188 243.339844 C 266.335938 245.238281 265.386719 247.109375 264.394531 248.960938 C 263.398438 250.8125 262.355469 252.636719 261.269531 254.4375 C 260.183594 256.238281 259.054688 258.007812 257.882812 259.753906 C 256.710938 261.496094 255.496094 263.210938 254.238281 264.894531 C 252.980469 266.578125 251.679688 268.230469 250.34375 269.847656 C 249.003906 271.46875 247.625 273.054688 246.207031 274.605469 C 244.789062 276.15625 243.335938 277.671875 241.84375 279.148438 C 241.363281 279.492188 240.90625 279.863281 240.46875 280.257812 C 240.03125 280.652344 239.617188 281.066406 239.222656 281.507812 C 238.832031 281.945312 238.464844 282.40625 238.121094 282.886719 C 237.777344 283.363281 237.464844 283.863281 237.175781 284.375 C 236.886719 284.890625 236.628906 285.417969 236.398438 285.960938 C 236.167969 286.503906 235.964844 287.054688 235.796875 287.621094 C 235.625 288.183594 235.488281 288.757812 235.378906 289.335938 C 235.269531 289.914062 235.195312 290.5 235.152344 291.085938 C 235.105469 291.675781 235.09375 292.265625 235.117188 292.851562 C 235.136719 293.441406 235.1875 294.027344 235.273438 294.613281 C 235.355469 295.195312 235.472656 295.773438 235.617188 296.34375 C 235.765625 296.914062 235.941406 297.476562 236.152344 298.027344 C 236.359375 298.578125 236.597656 299.117188 236.863281 299.640625 C 237.132812 300.167969 237.425781 300.675781 237.75 301.167969 C 238.070312 301.664062 238.417969 302.136719 238.792969 302.589844 C 239.167969 303.046875 239.566406 303.480469 239.988281 303.890625 C 240.410156 304.304688 240.851562 304.691406 241.316406 305.054688 C 241.78125 305.417969 242.261719 305.753906 242.761719 306.0625 C 243.261719 306.375 243.777344 306.65625 244.308594 306.910156 C 244.839844 307.164062 245.386719 307.390625 245.941406 307.582031 C 246.496094 307.777344 247.0625 307.941406 247.636719 308.074219 C 248.210938 308.207031 248.789062 308.308594 249.375 308.378906 C 249.957031 308.449219 250.542969 308.484375 251.132812 308.488281 C 251.722656 308.496094 252.308594 308.46875 252.894531 308.410156 C 253.480469 308.351562 254.0625 308.261719 254.636719 308.136719 C 255.214844 308.015625 255.78125 307.863281 256.339844 307.675781 C 256.902344 307.492188 257.449219 307.277344 257.984375 307.035156 C 258.519531 306.789062 259.039062 306.515625 259.546875 306.214844 C 260.054688 305.914062 260.542969 305.585938 261.011719 305.230469 C 261.480469 304.878906 261.929688 304.496094 262.359375 304.09375 C 262.789062 303.691406 263.195312 303.265625 263.578125 302.816406 C 263.960938 302.367188 264.316406 301.898438 264.648438 301.414062 C 266.503906 299.558594 268.3125 297.664062 270.078125 295.71875 C 271.839844 293.777344 273.554688 291.792969 275.21875 289.769531 C 276.886719 287.742188 278.5 285.675781 280.066406 283.570312 C 281.628906 281.464844 283.140625 279.320312 284.597656 277.140625 C 286.058594 274.960938 287.460938 272.746094 288.8125 270.496094 C 290.160156 268.246094 291.457031 265.964844 292.695312 263.652344 C 293.929688 261.335938 295.113281 258.996094 296.234375 256.625 C 297.355469 254.253906 298.421875 251.855469 299.425781 249.433594 C 300.429688 247.007812 301.375 244.5625 302.261719 242.089844 C 303.144531 239.621094 303.96875 237.128906 304.730469 234.621094 C 305.492188 232.109375 306.195312 229.582031 306.832031 227.035156 C 307.46875 224.488281 308.046875 221.929688 308.558594 219.355469 C 309.070312 216.78125 309.519531 214.199219 309.902344 211.601562 C 310.289062 209.007812 310.609375 206.402344 310.867188 203.792969 C 311.125 201.179688 311.320312 198.5625 311.449219 195.941406 C 311.578125 193.320312 311.640625 190.699219 311.640625 188.074219 C 311.640625 185.449219 311.578125 182.828125 311.449219 180.207031 C 311.320312 177.585938 311.125 174.96875 310.867188 172.359375 C 310.609375 169.746094 310.289062 167.144531 309.902344 164.546875 C 309.519531 161.953125 309.070312 159.367188 308.558594 156.792969 C 308.046875 154.21875 307.46875 151.660156 306.832031 149.117188 C 306.195312 146.570312 305.492188 144.042969 304.730469 141.53125 C 303.96875 139.019531 303.144531 136.53125 302.261719 134.058594 C 301.375 131.589844 300.429688 129.140625 299.425781 126.71875 C 298.421875 124.296875 297.355469 121.898438 296.234375 119.527344 C 295.113281 117.15625 293.929688 114.8125 292.695312 112.5 C 291.457031 110.1875 290.160156 107.90625 288.8125 105.65625 C 287.460938 103.40625 286.058594 101.191406 284.597656 99.011719 C 283.140625 96.832031 281.628906 94.6875 280.066406 92.582031 C 278.5 90.476562 276.886719 88.410156 275.21875 86.382812 C 273.554688 84.355469 271.839844 82.371094 270.078125 80.429688 C 268.3125 78.488281 266.503906 76.589844 264.648438 74.738281 Z M 264.648438 74.738281 " fill-opacity="1" fill-rule="nonzero"/><path fill="#ffffff" d="M 308.15625 31.183594 C 307.789062 30.777344 307.402344 30.394531 306.992188 30.027344 C 306.585938 29.664062 306.164062 29.320312 305.722656 28.996094 C 305.28125 28.675781 304.824219 28.375 304.351562 28.097656 C 303.882812 27.824219 303.398438 27.570312 302.898438 27.34375 C 302.402344 27.117188 301.894531 26.917969 301.378906 26.742188 C 300.859375 26.566406 300.335938 26.417969 299.804688 26.296875 C 299.269531 26.171875 298.734375 26.078125 298.191406 26.011719 C 297.648438 25.941406 297.105469 25.902344 296.558594 25.890625 C 296.011719 25.878906 295.46875 25.894531 294.921875 25.9375 C 294.378906 25.976562 293.835938 26.046875 293.300781 26.144531 C 292.761719 26.246094 292.230469 26.367188 291.707031 26.519531 C 291.179688 26.671875 290.664062 26.851562 290.15625 27.054688 C 289.652344 27.257812 289.15625 27.488281 288.671875 27.742188 C 288.1875 27.996094 287.71875 28.273438 287.261719 28.574219 C 286.808594 28.878906 286.367188 29.203125 285.945312 29.546875 C 285.523438 29.894531 285.117188 30.261719 284.734375 30.648438 C 284.347656 31.035156 283.980469 31.441406 283.636719 31.867188 C 283.292969 32.289062 282.96875 32.730469 282.671875 33.1875 C 282.371094 33.644531 282.09375 34.117188 281.84375 34.601562 C 281.589844 35.085938 281.363281 35.582031 281.160156 36.09375 C 280.960938 36.601562 280.785156 37.117188 280.632812 37.644531 C 280.484375 38.167969 280.363281 38.703125 280.265625 39.238281 C 280.171875 39.777344 280.101562 40.320312 280.0625 40.867188 C 280.019531 41.410156 280.007812 41.957031 280.019531 42.503906 C 280.035156 43.050781 280.078125 43.59375 280.148438 44.136719 C 280.214844 44.679688 280.3125 45.21875 280.4375 45.75 C 280.5625 46.28125 280.710938 46.808594 280.890625 47.324219 C 281.066406 47.84375 281.269531 48.351562 281.496094 48.847656 C 281.726562 49.34375 281.980469 49.828125 282.257812 50.296875 C 282.535156 50.769531 282.835938 51.226562 283.15625 51.667969 C 283.480469 52.105469 283.824219 52.53125 284.191406 52.9375 C 284.558594 53.339844 284.945312 53.726562 285.351562 54.09375 C 287.554688 56.277344 289.699219 58.515625 291.792969 60.808594 C 293.886719 63.097656 295.917969 65.4375 297.894531 67.832031 C 299.875 70.222656 301.789062 72.660156 303.644531 75.148438 C 305.503906 77.632812 307.296875 80.164062 309.027344 82.738281 C 310.761719 85.3125 312.425781 87.929688 314.03125 90.585938 C 315.632812 93.242188 317.167969 95.9375 318.636719 98.671875 C 320.105469 101.40625 321.507812 104.171875 322.839844 106.976562 C 324.175781 109.777344 325.4375 112.613281 326.632812 115.476562 C 327.824219 118.339844 328.945312 121.234375 329.996094 124.15625 C 331.046875 127.074219 332.023438 130.019531 332.929688 132.988281 C 333.835938 135.957031 334.667969 138.945312 335.425781 141.957031 C 336.183594 144.964844 336.867188 147.992188 337.472656 151.035156 C 338.082031 154.078125 338.617188 157.136719 339.074219 160.207031 C 339.53125 163.277344 339.914062 166.355469 340.21875 169.445312 C 340.523438 172.535156 340.753906 175.628906 340.90625 178.726562 C 341.058594 181.828125 341.136719 184.929688 341.136719 188.035156 C 341.136719 191.140625 341.058594 194.242188 340.90625 197.339844 C 340.753906 200.441406 340.523438 203.535156 340.21875 206.625 C 339.914062 209.714844 339.53125 212.792969 339.074219 215.863281 C 338.617188 218.933594 338.082031 221.988281 337.472656 225.035156 C 336.867188 228.078125 336.183594 231.105469 335.425781 234.113281 C 334.667969 237.125 333.835938 240.113281 332.929688 243.082031 C 332.023438 246.050781 331.046875 248.996094 329.996094 251.914062 C 328.945312 254.835938 327.824219 257.726562 326.632812 260.59375 C 325.4375 263.457031 324.175781 266.292969 322.839844 269.09375 C 321.507812 271.898438 320.105469 274.664062 318.636719 277.398438 C 317.167969 280.128906 315.632812 282.824219 314.03125 285.484375 C 312.425781 288.140625 310.761719 290.757812 309.027344 293.332031 C 307.296875 295.90625 305.503906 298.4375 303.644531 300.921875 C 301.789062 303.410156 299.875 305.847656 297.894531 308.238281 C 295.917969 310.628906 293.886719 312.972656 291.792969 315.261719 C 289.699219 317.554688 287.554688 319.789062 285.351562 321.976562 C 284.972656 322.347656 284.617188 322.742188 284.28125 323.148438 C 283.941406 323.558594 283.625 323.984375 283.328125 324.421875 C 283.035156 324.863281 282.757812 325.316406 282.507812 325.785156 C 282.257812 326.25 282.027344 326.730469 281.824219 327.21875 C 281.621094 327.707031 281.4375 328.207031 281.285156 328.714844 C 281.128906 329.222656 280.996094 329.734375 280.890625 330.253906 C 280.785156 330.773438 280.707031 331.296875 280.652344 331.824219 C 280.601562 332.355469 280.570312 332.882812 280.570312 333.414062 C 280.566406 333.945312 280.59375 334.472656 280.640625 335.003906 C 280.691406 335.53125 280.769531 336.054688 280.871094 336.574219 C 280.972656 337.097656 281.097656 337.609375 281.25 338.117188 C 281.402344 338.628906 281.578125 339.125 281.78125 339.617188 C 281.980469 340.109375 282.207031 340.589844 282.453125 341.058594 C 282.703125 341.527344 282.972656 341.980469 283.265625 342.421875 C 283.558594 342.867188 283.871094 343.292969 284.207031 343.703125 C 284.542969 344.117188 284.894531 344.507812 285.269531 344.886719 C 285.644531 345.261719 286.035156 345.621094 286.441406 345.957031 C 286.851562 346.296875 287.273438 346.613281 287.714844 346.910156 C 288.15625 347.207031 288.605469 347.480469 289.074219 347.730469 C 289.539062 347.984375 290.019531 348.210938 290.507812 348.414062 C 290.996094 348.621094 291.492188 348.800781 292 348.957031 C 292.507812 349.113281 293.019531 349.242188 293.539062 349.347656 C 294.058594 349.453125 294.582031 349.535156 295.109375 349.585938 C 295.636719 349.640625 296.164062 349.667969 296.695312 349.671875 C 297.226562 349.671875 297.753906 349.648438 298.28125 349.597656 C 298.808594 349.546875 299.332031 349.472656 299.855469 349.371094 C 300.375 349.269531 300.886719 349.140625 301.394531 348.988281 C 301.902344 348.835938 302.402344 348.660156 302.894531 348.460938 C 303.382812 348.257812 303.863281 348.035156 304.332031 347.785156 C 304.800781 347.535156 305.253906 347.265625 305.695312 346.972656 C 306.136719 346.679688 306.5625 346.367188 306.976562 346.03125 C 307.386719 345.695312 307.777344 345.339844 308.15625 344.964844 C 310.734375 342.40625 313.25 339.785156 315.699219 337.101562 C 318.148438 334.417969 320.53125 331.675781 322.84375 328.875 C 325.160156 326.070312 327.402344 323.214844 329.578125 320.300781 C 331.75 317.390625 333.851562 314.425781 335.878906 311.410156 C 337.90625 308.394531 339.855469 305.328125 341.734375 302.214844 C 343.609375 299.101562 345.40625 295.945312 347.128906 292.746094 C 348.847656 289.542969 350.488281 286.300781 352.050781 283.019531 C 353.609375 279.734375 355.089844 276.417969 356.488281 273.058594 C 357.882812 269.703125 359.195312 266.316406 360.425781 262.894531 C 361.65625 259.476562 362.800781 256.027344 363.863281 252.550781 C 364.921875 249.070312 365.894531 245.570312 366.78125 242.046875 C 367.667969 238.519531 368.46875 234.972656 369.179688 231.410156 C 369.894531 227.84375 370.515625 224.265625 371.054688 220.667969 C 371.589844 217.074219 372.035156 213.464844 372.394531 209.847656 C 372.75 206.230469 373.019531 202.605469 373.199219 198.976562 C 373.378906 195.34375 373.46875 191.710938 373.46875 188.074219 C 373.46875 184.441406 373.378906 180.804688 373.199219 177.175781 C 373.019531 173.542969 372.75 169.917969 372.394531 166.300781 C 372.035156 162.683594 371.589844 159.078125 371.054688 155.480469 C 370.515625 151.886719 369.894531 148.304688 369.179688 144.742188 C 368.46875 141.175781 367.667969 137.632812 366.78125 134.105469 C 365.894531 130.582031 364.921875 127.078125 363.863281 123.601562 C 362.800781 120.125 361.65625 116.675781 360.425781 113.253906 C 359.195312 109.835938 357.882812 106.445312 356.488281 103.089844 C 355.089844 99.734375 353.609375 96.414062 352.050781 93.132812 C 350.488281 89.851562 348.847656 86.609375 347.128906 83.40625 C 345.40625 80.203125 343.609375 77.046875 341.734375 73.933594 C 339.855469 70.820312 337.90625 67.757812 335.878906 64.742188 C 333.851562 61.726562 331.75 58.761719 329.578125 55.847656 C 327.402344 52.9375 325.160156 50.078125 322.84375 47.277344 C 320.53125 44.476562 318.148438 41.734375 315.699219 39.050781 C 313.25 36.363281 310.734375 33.742188 308.15625 31.183594 Z M 308.15625 31.183594 " fill-opacity="1" fill-rule="nonzero"/><path fill="#ffffff" d="M 219.039062 119.75 C 218.664062 119.375 218.269531 119.019531 217.859375 118.683594 C 217.445312 118.351562 217.019531 118.035156 216.578125 117.742188 C 216.136719 117.449219 215.683594 117.179688 215.214844 116.929688 C 214.746094 116.683594 214.265625 116.457031 213.777344 116.253906 C 213.285156 116.054688 212.785156 115.878906 212.277344 115.726562 C 211.769531 115.574219 211.257812 115.445312 210.738281 115.34375 C 210.21875 115.242188 209.691406 115.167969 209.164062 115.117188 C 208.636719 115.066406 208.109375 115.042969 207.578125 115.042969 C 207.050781 115.046875 206.519531 115.074219 205.992188 115.128906 C 205.464844 115.183594 204.941406 115.261719 204.421875 115.367188 C 203.902344 115.472656 203.390625 115.601562 202.882812 115.757812 C 202.378906 115.914062 201.878906 116.09375 201.390625 116.300781 C 200.902344 116.503906 200.421875 116.734375 199.957031 116.984375 C 199.492188 117.234375 199.039062 117.511719 198.597656 117.804688 C 198.160156 118.101562 197.734375 118.421875 197.324219 118.757812 C 196.917969 119.097656 196.527344 119.453125 196.152344 119.828125 C 195.78125 120.207031 195.425781 120.601562 195.089844 121.011719 C 194.753906 121.421875 194.441406 121.851562 194.148438 122.292969 C 193.855469 122.734375 193.585938 123.191406 193.335938 123.660156 C 193.089844 124.128906 192.863281 124.605469 192.664062 125.097656 C 192.460938 125.589844 192.285156 126.089844 192.132812 126.597656 C 191.980469 127.105469 191.855469 127.621094 191.753906 128.140625 C 191.652344 128.660156 191.574219 129.183594 191.527344 129.714844 C 191.476562 130.242188 191.453125 130.769531 191.453125 131.300781 C 191.457031 131.832031 191.484375 132.363281 191.535156 132.890625 C 191.589844 133.417969 191.671875 133.941406 191.777344 134.460938 C 191.878906 134.980469 192.011719 135.496094 192.167969 136.003906 C 192.324219 136.507812 192.503906 137.007812 192.707031 137.496094 C 192.910156 137.988281 193.140625 138.464844 193.390625 138.933594 C 193.644531 139.398438 193.917969 139.851562 194.210938 140.292969 C 194.507812 140.734375 194.824219 141.15625 195.164062 141.566406 C 195.5 141.976562 195.859375 142.367188 196.234375 142.738281 C 196.980469 143.480469 197.707031 144.238281 198.417969 145.015625 C 199.125 145.789062 199.8125 146.582031 200.484375 147.394531 C 201.152344 148.203125 201.804688 149.03125 202.433594 149.871094 C 203.0625 150.714844 203.667969 151.570312 204.253906 152.445312 C 204.84375 153.316406 205.40625 154.203125 205.949219 155.101562 C 206.492188 156.003906 207.011719 156.914062 207.511719 157.84375 C 208.007812 158.769531 208.484375 159.707031 208.933594 160.65625 C 209.386719 161.605469 209.8125 162.5625 210.21875 163.535156 C 210.621094 164.503906 211.003906 165.484375 211.359375 166.476562 C 211.714844 167.464844 212.046875 168.460938 212.351562 169.46875 C 212.660156 170.472656 212.941406 171.484375 213.199219 172.503906 C 213.453125 173.523438 213.6875 174.550781 213.890625 175.582031 C 214.097656 176.613281 214.277344 177.648438 214.433594 178.6875 C 214.589844 179.726562 214.71875 180.773438 214.820312 181.816406 C 214.925781 182.863281 215.003906 183.914062 215.054688 184.964844 C 215.105469 186.011719 215.132812 187.0625 215.132812 188.117188 C 215.132812 189.167969 215.105469 190.21875 215.054688 191.269531 C 215.003906 192.320312 214.925781 193.367188 214.820312 194.414062 C 214.71875 195.460938 214.589844 196.503906 214.433594 197.542969 C 214.277344 198.582031 214.097656 199.617188 213.890625 200.648438 C 213.6875 201.679688 213.453125 202.707031 213.199219 203.726562 C 212.941406 204.746094 212.660156 205.757812 212.351562 206.765625 C 212.046875 207.769531 211.714844 208.765625 211.359375 209.757812 C 211.003906 210.746094 210.621094 211.726562 210.21875 212.695312 C 209.8125 213.667969 209.386719 214.628906 208.933594 215.578125 C 208.484375 216.527344 208.007812 217.464844 207.511719 218.390625 C 207.011719 219.316406 206.492188 220.226562 205.949219 221.128906 C 205.40625 222.027344 204.84375 222.914062 204.253906 223.789062 C 203.667969 224.660156 203.0625 225.515625 202.433594 226.359375 C 201.804688 227.203125 201.152344 228.027344 200.484375 228.835938 C 199.8125 229.648438 199.125 230.441406 198.417969 231.21875 C 197.707031 231.992188 196.980469 232.75 196.234375 233.492188 C 195.855469 233.863281 195.5 234.257812 195.164062 234.664062 C 194.824219 235.074219 194.507812 235.5 194.210938 235.9375 C 193.914062 236.378906 193.640625 236.832031 193.390625 237.300781 C 193.136719 237.765625 192.910156 238.246094 192.703125 238.734375 C 192.5 239.222656 192.320312 239.722656 192.164062 240.230469 C 192.007812 240.738281 191.875 241.25 191.769531 241.769531 C 191.664062 242.292969 191.585938 242.816406 191.53125 243.34375 C 191.476562 243.871094 191.449219 244.402344 191.449219 244.929688 C 191.445312 245.460938 191.46875 245.992188 191.519531 246.519531 C 191.570312 247.046875 191.644531 247.574219 191.746094 248.09375 C 191.847656 248.613281 191.976562 249.128906 192.128906 249.636719 C 192.28125 250.144531 192.457031 250.644531 192.65625 251.136719 C 192.859375 251.628906 193.082031 252.109375 193.332031 252.578125 C 193.578125 253.046875 193.851562 253.5 194.144531 253.945312 C 194.4375 254.386719 194.75 254.8125 195.085938 255.226562 C 195.417969 255.636719 195.773438 256.03125 196.148438 256.40625 C 196.519531 256.785156 196.910156 257.140625 197.320312 257.480469 C 197.730469 257.816406 198.152344 258.132812 198.59375 258.429688 C 199.03125 258.726562 199.484375 259 199.953125 259.253906 C 200.417969 259.503906 200.898438 259.734375 201.386719 259.9375 C 201.875 260.144531 202.375 260.324219 202.878906 260.480469 C 203.386719 260.636719 203.902344 260.765625 204.421875 260.871094 C 204.941406 260.976562 205.464844 261.054688 205.992188 261.109375 C 206.519531 261.164062 207.046875 261.191406 207.578125 261.191406 C 208.109375 261.195312 208.636719 261.167969 209.164062 261.121094 C 209.691406 261.070312 210.214844 260.992188 210.738281 260.890625 C 211.257812 260.789062 211.769531 260.664062 212.277344 260.511719 C 212.785156 260.359375 213.285156 260.179688 213.777344 259.980469 C 214.265625 259.777344 214.746094 259.550781 215.214844 259.304688 C 215.683594 259.054688 216.136719 258.785156 216.578125 258.488281 C 217.019531 258.195312 217.449219 257.882812 217.859375 257.546875 C 218.269531 257.210938 218.664062 256.855469 219.039062 256.484375 C 220.164062 255.367188 221.257812 254.226562 222.324219 253.054688 C 223.394531 251.886719 224.433594 250.691406 225.441406 249.46875 C 226.449219 248.25 227.425781 247.003906 228.375 245.734375 C 229.320312 244.464844 230.238281 243.175781 231.121094 241.859375 C 232.003906 240.546875 232.855469 239.210938 233.671875 237.855469 C 234.492188 236.5 235.273438 235.121094 236.023438 233.726562 C 236.773438 232.332031 237.488281 230.917969 238.171875 229.488281 C 238.851562 228.058594 239.496094 226.613281 240.105469 225.148438 C 240.710938 223.6875 241.285156 222.210938 241.820312 220.71875 C 242.355469 219.230469 242.855469 217.726562 243.316406 216.210938 C 243.78125 214.695312 244.203125 213.171875 244.589844 211.632812 C 244.976562 210.097656 245.328125 208.554688 245.636719 207 C 245.949219 205.445312 246.21875 203.886719 246.453125 202.320312 C 246.6875 200.753906 246.882812 199.179688 247.039062 197.605469 C 247.191406 196.027344 247.308594 194.449219 247.386719 192.867188 C 247.464844 191.285156 247.503906 189.699219 247.503906 188.117188 C 247.503906 186.53125 247.464844 184.949219 247.386719 183.367188 C 247.308594 181.785156 247.191406 180.203125 247.039062 178.628906 C 246.882812 177.050781 246.6875 175.480469 246.453125 173.914062 C 246.21875 172.34375 245.949219 170.785156 245.636719 169.230469 C 245.328125 167.679688 244.976562 166.132812 244.589844 164.597656 C 244.203125 163.0625 243.78125 161.535156 243.316406 160.019531 C 242.855469 158.503906 242.355469 157 241.820312 155.511719 C 241.285156 154.019531 240.710938 152.542969 240.105469 151.082031 C 239.496094 149.621094 238.851562 148.171875 238.171875 146.742188 C 237.488281 145.3125 236.773438 143.898438 236.023438 142.503906 C 235.273438 141.109375 234.492188 139.734375 233.671875 138.375 C 232.855469 137.019531 232.003906 135.683594 231.121094 134.371094 C 230.238281 133.054688 229.320312 131.765625 228.375 130.496094 C 227.425781 129.226562 226.449219 127.980469 225.441406 126.761719 C 224.433594 125.539062 223.394531 124.34375 222.324219 123.175781 C 221.257812 122.007812 220.164062 120.863281 219.039062 119.75 Z M 219.039062 119.75 " fill-opacity="1" fill-rule="nonzero"/></svg>