<svg xmlns="http://www.w3.org/2000/svg" xmlns:xlink="http://www.w3.org/1999/xlink" width="1366" zoomAndPan="magnify" viewBox="0 0 1024.5 299.999988" height="400" preserveAspectRatio="xMidYMid meet" version="1.0"><defs><g/><clipPath id="74077aaa75"><path d="M 261.308594 90.210938 L 375.308594 90.210938 L 375.308594 210.210938 L 261.308594 210.210938 Z M 261.308594 90.210938 " clip-rule="nonzero"/></clipPath></defs><g fill="#e1c340" fill-opacity="1"><g transform="translate(54.996087, 207.077818)"><g><path d="M 118.5 -18.09375 C 118.164062 -15.21875 117.691406 -12.394531 117.078125 -9.625 C 116.472656 -6.863281 115.726562 -4.398438 114.84375 -2.234375 C 113.957031 -0.078125 112.820312 1.632812 111.4375 2.90625 C 110.0625 4.175781 108.488281 4.8125 106.71875 4.8125 C 104.945312 4.8125 103.34375 3.457031 101.90625 0.75 C 100.46875 -1.957031 99.113281 -5.550781 97.84375 -10.03125 C 96.570312 -14.519531 95.410156 -19.582031 94.359375 -25.21875 C 93.304688 -30.863281 92.363281 -36.59375 91.53125 -42.40625 C 90.695312 -48.21875 90.003906 -53.890625 89.453125 -59.421875 C 88.898438 -64.953125 88.457031 -69.765625 88.125 -73.859375 C 87.46875 -69.648438 86.695312 -64.945312 85.8125 -59.75 C 84.925781 -54.550781 83.875 -49.265625 82.65625 -43.890625 C 81.4375 -38.523438 80.109375 -33.269531 78.671875 -28.125 C 77.234375 -22.988281 75.679688 -18.398438 74.015625 -14.359375 C 72.359375 -10.316406 70.585938 -7.078125 68.703125 -4.640625 C 66.828125 -2.210938 64.835938 -1 62.734375 -1 C 60.859375 -1 58.976562 -2.269531 57.09375 -4.8125 C 55.207031 -7.351562 53.378906 -10.695312 51.609375 -14.84375 C 49.847656 -19 48.191406 -23.617188 46.640625 -28.703125 C 45.085938 -33.796875 43.644531 -38.914062 42.3125 -44.0625 C 40.988281 -49.207031 39.828125 -54.078125 38.828125 -58.671875 C 37.835938 -63.265625 37.066406 -67.109375 36.515625 -70.203125 C 36.515625 -67.878906 36.484375 -65.304688 36.421875 -62.484375 C 36.367188 -59.660156 36.34375 -57.644531 36.34375 -56.4375 C 36.34375 -55.875 36.316406 -54.046875 36.265625 -50.953125 C 36.210938 -47.859375 36.019531 -44.148438 35.6875 -39.828125 C 35.351562 -35.515625 34.851562 -30.894531 34.1875 -25.96875 C 33.519531 -21.050781 32.550781 -16.488281 31.28125 -12.28125 C 30.007812 -8.070312 28.429688 -4.53125 26.546875 -1.65625 C 24.671875 1.21875 22.347656 2.765625 19.578125 2.984375 C 17.367188 1.992188 15.515625 0.3125 14.015625 -2.0625 C 12.523438 -4.445312 11.28125 -7.242188 10.28125 -10.453125 C 9.289062 -13.660156 8.519531 -17.085938 7.96875 -20.734375 C 7.414062 -24.390625 6.972656 -27.957031 6.640625 -31.4375 C 6.304688 -34.925781 6.109375 -38.164062 6.046875 -41.15625 C 5.992188 -44.144531 5.96875 -46.582031 5.96875 -48.46875 C 5.96875 -51.78125 6.160156 -55.953125 6.546875 -60.984375 C 6.941406 -66.023438 7.582031 -71.3125 8.46875 -76.84375 C 9.351562 -82.375 10.515625 -87.90625 11.953125 -93.4375 C 13.390625 -98.96875 15.128906 -103.914062 17.171875 -108.28125 C 19.222656 -112.65625 21.601562 -116.226562 24.3125 -119 C 27.019531 -121.769531 30.144531 -123.15625 33.6875 -123.15625 C 35.351562 -123.15625 37.125 -122.210938 39 -120.328125 C 40.882812 -118.441406 42.765625 -115.976562 44.640625 -112.9375 C 46.523438 -109.894531 48.351562 -106.492188 50.125 -102.734375 C 51.894531 -98.972656 53.582031 -95.179688 55.1875 -91.359375 C 56.789062 -87.546875 58.203125 -83.894531 59.421875 -80.40625 C 60.640625 -76.925781 61.632812 -73.96875 62.40625 -71.53125 C 63.289062 -74.1875 64.394531 -77.285156 65.71875 -80.828125 C 67.050781 -84.367188 68.519531 -88.046875 70.125 -91.859375 C 71.726562 -95.679688 73.5 -99.441406 75.4375 -103.140625 C 77.375 -106.847656 79.390625 -110.164062 81.484375 -113.09375 C 83.585938 -116.03125 85.71875 -118.410156 87.875 -120.234375 C 90.039062 -122.066406 92.226562 -122.984375 94.4375 -122.984375 C 98.3125 -122.984375 101.628906 -121.546875 104.390625 -118.671875 C 107.160156 -115.796875 109.484375 -112.0625 111.359375 -107.46875 C 113.242188 -102.875 114.738281 -97.726562 115.84375 -92.03125 C 116.945312 -86.332031 117.800781 -80.6875 118.40625 -75.09375 C 119.019531 -69.507812 119.410156 -64.28125 119.578125 -59.40625 C 119.742188 -54.539062 119.828125 -50.617188 119.828125 -47.640625 C 119.828125 -46.421875 119.828125 -44.757812 119.828125 -42.65625 C 119.828125 -40.550781 119.800781 -38.171875 119.75 -35.515625 C 119.695312 -32.859375 119.554688 -30.035156 119.328125 -27.046875 C 119.109375 -24.066406 118.832031 -21.082031 118.5 -18.09375 Z M 118.5 -18.09375 "/></g></g></g><g fill="#e1c340" fill-opacity="1"><g transform="translate(181.633978, 207.077818)"><g><path d="M 74.515625 -29.546875 C 74.515625 -25.785156 73.328125 -22.101562 70.953125 -18.5 C 68.578125 -14.90625 65.585938 -11.695312 61.984375 -8.875 C 58.390625 -6.050781 54.546875 -3.78125 50.453125 -2.0625 C 46.359375 -0.351562 42.597656 0.5 39.171875 0.5 C 33.304688 0.5 28.078125 -0.960938 23.484375 -3.890625 C 18.890625 -6.828125 15.039062 -10.5625 11.9375 -15.09375 C 8.84375 -19.632812 6.492188 -24.644531 4.890625 -30.125 C 3.285156 -35.601562 2.484375 -40.941406 2.484375 -46.140625 C 2.484375 -51.671875 3.257812 -57.585938 4.8125 -63.890625 C 6.363281 -70.203125 8.710938 -76.015625 11.859375 -81.328125 C 15.015625 -86.640625 19 -91.0625 23.8125 -94.59375 C 28.625 -98.132812 34.351562 -99.90625 41 -99.90625 C 44.757812 -99.90625 48.351562 -99.269531 51.78125 -98 C 55.207031 -96.726562 58.191406 -94.929688 60.734375 -92.609375 C 63.285156 -90.285156 65.332031 -87.519531 66.875 -84.3125 C 68.425781 -81.101562 69.203125 -77.507812 69.203125 -73.53125 C 69.203125 -68.320312 68.097656 -63.445312 65.890625 -58.90625 C 63.679688 -54.375 60.75 -50.445312 57.09375 -47.125 C 53.4375 -43.8125 49.226562 -41.128906 44.46875 -39.078125 C 39.71875 -37.035156 34.851562 -35.90625 29.875 -35.6875 C 30.3125 -32.476562 31.609375 -30.15625 33.765625 -28.71875 C 35.929688 -27.28125 38.507812 -26.5625 41.5 -26.5625 C 43.707031 -26.5625 45.863281 -27.113281 47.96875 -28.21875 C 50.070312 -29.320312 52.117188 -30.566406 54.109375 -31.953125 C 56.097656 -33.335938 58.0625 -34.582031 60 -35.6875 C 61.9375 -36.789062 63.898438 -37.34375 65.890625 -37.34375 C 68.097656 -37.34375 70.085938 -36.625 71.859375 -35.1875 C 73.628906 -33.75 74.515625 -31.867188 74.515625 -29.546875 Z M 47.640625 -70.203125 C 47.640625 -71.640625 47.25 -73.132812 46.46875 -74.6875 C 45.695312 -76.238281 44.476562 -77.015625 42.8125 -77.015625 C 40.382812 -77.015625 38.335938 -76.375 36.671875 -75.09375 C 35.015625 -73.820312 33.632812 -72.21875 32.53125 -70.28125 C 31.425781 -68.351562 30.566406 -66.28125 29.953125 -64.0625 C 29.347656 -61.851562 28.988281 -59.804688 28.875 -57.921875 C 30.425781 -58.253906 32.28125 -58.695312 34.4375 -59.25 C 36.59375 -59.800781 38.640625 -60.546875 40.578125 -61.484375 C 42.515625 -62.429688 44.175781 -63.625 45.5625 -65.0625 C 46.945312 -66.5 47.640625 -68.210938 47.640625 -70.203125 Z M 47.640625 -70.203125 "/></g></g></g><g fill="#e1c340" fill-opacity="1"><g transform="translate(257.81247, 207.077818)"><g/></g></g><g fill="#e1c340" fill-opacity="1"><g transform="translate(297.812118, 207.077818)"><g/></g></g><g fill="#e1c340" fill-opacity="1"><g transform="translate(337.811766, 207.077818)"><g/></g></g><g fill="#e1c340" fill-opacity="1"><g transform="translate(377.800741, 207.077818)"><g><path d="M 87.625 2.15625 C 84.09375 2.15625 80.914062 0.273438 78.09375 -3.484375 C 75.269531 -7.242188 72.804688 -11.75 70.703125 -17 C 68.597656 -22.257812 66.851562 -27.65625 65.46875 -33.1875 C 64.09375 -38.726562 63.070312 -43.320312 62.40625 -46.96875 C 61.519531 -44.757812 60.328125 -42.050781 58.828125 -38.84375 C 57.335938 -35.632812 55.625 -32.257812 53.6875 -28.71875 C 51.75 -25.175781 49.671875 -21.601562 47.453125 -18 C 45.242188 -14.40625 42.953125 -11.171875 40.578125 -8.296875 C 38.203125 -5.421875 35.820312 -3.097656 33.4375 -1.328125 C 31.0625 0.441406 28.769531 1.328125 26.5625 1.328125 C 23.570312 1.328125 20.941406 -0.109375 18.671875 -2.984375 C 16.398438 -5.859375 14.488281 -9.617188 12.9375 -14.265625 C 11.394531 -18.921875 10.097656 -24.066406 9.046875 -29.703125 C 7.992188 -35.347656 7.191406 -40.992188 6.640625 -46.640625 C 6.085938 -52.285156 5.695312 -57.539062 5.46875 -62.40625 C 5.25 -67.269531 5.140625 -71.195312 5.140625 -74.1875 C 5.140625 -76.957031 5.273438 -79.613281 5.546875 -82.15625 C 5.828125 -84.695312 6.382812 -86.960938 7.21875 -88.953125 C 8.050781 -90.953125 9.269531 -92.53125 10.875 -93.6875 C 12.476562 -94.851562 14.609375 -95.4375 17.265625 -95.4375 C 19.804688 -95.4375 21.988281 -94.492188 23.8125 -92.609375 C 25.644531 -90.734375 27.164062 -88.269531 28.375 -85.21875 C 29.59375 -82.175781 30.585938 -78.742188 31.359375 -74.921875 C 32.140625 -71.109375 32.75 -67.238281 33.1875 -63.3125 C 33.632812 -59.382812 33.941406 -55.566406 34.109375 -51.859375 C 34.273438 -48.160156 34.410156 -44.984375 34.515625 -42.328125 C 35.179688 -44.648438 36.125 -47.5 37.34375 -50.875 C 38.5625 -54.25 39.890625 -57.84375 41.328125 -61.65625 C 42.765625 -65.476562 44.335938 -69.269531 46.046875 -73.03125 C 47.765625 -76.789062 49.484375 -80.160156 51.203125 -83.140625 C 52.921875 -86.128906 54.609375 -88.566406 56.265625 -90.453125 C 57.921875 -92.335938 59.523438 -93.28125 61.078125 -93.28125 L 61.25 -93.28125 C 63.238281 -93.28125 65.171875 -92.335938 67.046875 -90.453125 C 68.929688 -88.566406 70.757812 -86.128906 72.53125 -83.140625 C 74.300781 -80.160156 75.957031 -76.757812 77.5 -72.9375 C 79.050781 -69.125 80.488281 -65.253906 81.8125 -61.328125 C 83.144531 -57.398438 84.304688 -53.582031 85.296875 -49.875 C 86.296875 -46.164062 87.128906 -42.984375 87.796875 -40.328125 C 87.910156 -43.535156 88.078125 -47.160156 88.296875 -51.203125 C 88.515625 -55.242188 88.925781 -59.3125 89.53125 -63.40625 C 90.144531 -67.5 90.976562 -71.476562 92.03125 -75.34375 C 93.082031 -79.21875 94.378906 -82.675781 95.921875 -85.71875 C 97.472656 -88.757812 99.382812 -91.191406 101.65625 -93.015625 C 103.925781 -94.847656 106.554688 -95.765625 109.546875 -95.765625 C 112.640625 -95.765625 114.929688 -94.6875 116.421875 -92.53125 C 117.921875 -90.375 118.671875 -87.742188 118.671875 -84.640625 C 118.671875 -81.328125 118.253906 -76.898438 117.421875 -71.359375 C 116.585938 -65.828125 115.453125 -59.828125 114.015625 -53.359375 C 112.578125 -46.890625 110.890625 -40.363281 108.953125 -33.78125 C 107.023438 -27.195312 104.894531 -21.25 102.5625 -15.9375 C 100.238281 -10.625 97.804688 -6.28125 95.265625 -2.90625 C 92.722656 0.46875 90.175781 2.15625 87.625 2.15625 Z M 87.625 2.15625 "/></g></g></g><g fill="#e1c340" fill-opacity="1"><g transform="translate(500.621237, 207.077818)"><g/></g></g><g fill="#e1c340" fill-opacity="1"><g transform="translate(540.620885, 207.077818)"><g><path d="M 118.5 -18.09375 C 118.164062 -15.21875 117.691406 -12.394531 117.078125 -9.625 C 116.472656 -6.863281 115.726562 -4.398438 114.84375 -2.234375 C 113.957031 -0.078125 112.820312 1.632812 111.4375 2.90625 C 110.0625 4.175781 108.488281 4.8125 106.71875 4.8125 C 104.945312 4.8125 103.34375 3.457031 101.90625 0.75 C 100.46875 -1.957031 99.113281 -5.550781 97.84375 -10.03125 C 96.570312 -14.519531 95.410156 -19.582031 94.359375 -25.21875 C 93.304688 -30.863281 92.363281 -36.59375 91.53125 -42.40625 C 90.695312 -48.21875 90.003906 -53.890625 89.453125 -59.421875 C 88.898438 -64.953125 88.457031 -69.765625 88.125 -73.859375 C 87.46875 -69.648438 86.695312 -64.945312 85.8125 -59.75 C 84.925781 -54.550781 83.875 -49.265625 82.65625 -43.890625 C 81.4375 -38.523438 80.109375 -33.269531 78.671875 -28.125 C 77.234375 -22.988281 75.679688 -18.398438 74.015625 -14.359375 C 72.359375 -10.316406 70.585938 -7.078125 68.703125 -4.640625 C 66.828125 -2.210938 64.835938 -1 62.734375 -1 C 60.859375 -1 58.976562 -2.269531 57.09375 -4.8125 C 55.207031 -7.351562 53.378906 -10.695312 51.609375 -14.84375 C 49.847656 -19 48.191406 -23.617188 46.640625 -28.703125 C 45.085938 -33.796875 43.644531 -38.914062 42.3125 -44.0625 C 40.988281 -49.207031 39.828125 -54.078125 38.828125 -58.671875 C 37.835938 -63.265625 37.066406 -67.109375 36.515625 -70.203125 C 36.515625 -67.878906 36.484375 -65.304688 36.421875 -62.484375 C 36.367188 -59.660156 36.34375 -57.644531 36.34375 -56.4375 C 36.34375 -55.875 36.316406 -54.046875 36.265625 -50.953125 C 36.210938 -47.859375 36.019531 -44.148438 35.6875 -39.828125 C 35.351562 -35.515625 34.851562 -30.894531 34.1875 -25.96875 C 33.519531 -21.050781 32.550781 -16.488281 31.28125 -12.28125 C 30.007812 -8.070312 28.429688 -4.53125 26.546875 -1.65625 C 24.671875 1.21875 22.347656 2.765625 19.578125 2.984375 C 17.367188 1.992188 15.515625 0.3125 14.015625 -2.0625 C 12.523438 -4.445312 11.28125 -7.242188 10.28125 -10.453125 C 9.289062 -13.660156 8.519531 -17.085938 7.96875 -20.734375 C 7.414062 -24.390625 6.972656 -27.957031 6.640625 -31.4375 C 6.304688 -34.925781 6.109375 -38.164062 6.046875 -41.15625 C 5.992188 -44.144531 5.96875 -46.582031 5.96875 -48.46875 C 5.96875 -51.78125 6.160156 -55.953125 6.546875 -60.984375 C 6.941406 -66.023438 7.582031 -71.3125 8.46875 -76.84375 C 9.351562 -82.375 10.515625 -87.90625 11.953125 -93.4375 C 13.390625 -98.96875 15.128906 -103.914062 17.171875 -108.28125 C 19.222656 -112.65625 21.601562 -116.226562 24.3125 -119 C 27.019531 -121.769531 30.144531 -123.15625 33.6875 -123.15625 C 35.351562 -123.15625 37.125 -122.210938 39 -120.328125 C 40.882812 -118.441406 42.765625 -115.976562 44.640625 -112.9375 C 46.523438 -109.894531 48.351562 -106.492188 50.125 -102.734375 C 51.894531 -98.972656 53.582031 -95.179688 55.1875 -91.359375 C 56.789062 -87.546875 58.203125 -83.894531 59.421875 -80.40625 C 60.640625 -76.925781 61.632812 -73.96875 62.40625 -71.53125 C 63.289062 -74.1875 64.394531 -77.285156 65.71875 -80.828125 C 67.050781 -84.367188 68.519531 -88.046875 70.125 -91.859375 C 71.726562 -95.679688 73.5 -99.441406 75.4375 -103.140625 C 77.375 -106.847656 79.390625 -110.164062 81.484375 -113.09375 C 83.585938 -116.03125 85.71875 -118.410156 87.875 -120.234375 C 90.039062 -122.066406 92.226562 -122.984375 94.4375 -122.984375 C 98.3125 -122.984375 101.628906 -121.546875 104.390625 -118.671875 C 107.160156 -115.796875 109.484375 -112.0625 111.359375 -107.46875 C 113.242188 -102.875 114.738281 -97.726562 115.84375 -92.03125 C 116.945312 -86.332031 117.800781 -80.6875 118.40625 -75.09375 C 119.019531 -69.507812 119.410156 -64.28125 119.578125 -59.40625 C 119.742188 -54.539062 119.828125 -50.617188 119.828125 -47.640625 C 119.828125 -46.421875 119.828125 -44.757812 119.828125 -42.65625 C 119.828125 -40.550781 119.800781 -38.171875 119.75 -35.515625 C 119.695312 -32.859375 119.554688 -30.035156 119.328125 -27.046875 C 119.109375 -24.066406 118.832031 -21.082031 118.5 -18.09375 Z M 118.5 -18.09375 "/></g></g></g><g fill="#e1c340" fill-opacity="1"><g transform="translate(667.258775, 207.077818)"><g><path d="M 75.515625 -23.40625 C 75.515625 -21.414062 75.429688 -18.8125 75.265625 -15.59375 C 75.097656 -12.382812 74.625 -9.257812 73.84375 -6.21875 C 73.070312 -3.175781 71.859375 -0.550781 70.203125 1.65625 C 68.546875 3.875 66.222656 4.984375 63.234375 4.984375 C 59.140625 4.984375 55.984375 3.65625 53.765625 1 C 51.554688 -1.65625 50.507812 -4.976562 50.625 -8.96875 C 47.082031 -5.863281 43.066406 -3.425781 38.578125 -1.65625 C 34.097656 0.113281 29.535156 1 24.890625 1 C 21.679688 1 18.640625 0.222656 15.765625 -1.328125 C 12.890625 -2.878906 10.34375 -4.867188 8.125 -7.296875 C 5.914062 -9.734375 4.144531 -12.472656 2.8125 -15.515625 C 1.488281 -18.554688 0.828125 -21.570312 0.828125 -24.5625 C 0.828125 -29.875 2.457031 -34.519531 5.71875 -38.5 C 8.988281 -42.488281 13 -45.890625 17.75 -48.703125 C 22.507812 -51.523438 27.570312 -53.765625 32.9375 -55.421875 C 38.3125 -57.085938 43.097656 -58.195312 47.296875 -58.75 C 47.296875 -59.300781 47.320312 -59.796875 47.375 -60.234375 C 47.4375 -60.679688 47.46875 -61.179688 47.46875 -61.734375 C 47.46875 -65.171875 46.523438 -67.9375 44.640625 -70.03125 C 42.765625 -72.132812 40.109375 -73.1875 36.671875 -73.1875 C 33.910156 -73.1875 31.535156 -72.71875 29.546875 -71.78125 C 27.554688 -70.84375 25.675781 -69.789062 23.90625 -68.625 C 22.132812 -67.46875 20.363281 -66.414062 18.59375 -65.46875 C 16.820312 -64.53125 14.828125 -64.0625 12.609375 -64.0625 C 10.179688 -64.0625 8.109375 -64.835938 6.390625 -66.390625 C 4.671875 -67.941406 3.8125 -69.929688 3.8125 -72.359375 C 3.8125 -76.015625 4.890625 -79.332031 7.046875 -82.3125 C 9.210938 -85.300781 11.925781 -87.816406 15.1875 -89.859375 C 18.445312 -91.910156 21.984375 -93.515625 25.796875 -94.671875 C 29.617188 -95.835938 33.132812 -96.421875 36.34375 -96.421875 C 39.332031 -96.421875 42.320312 -96.0625 45.3125 -95.34375 C 48.300781 -94.625 51.117188 -93.519531 53.765625 -92.03125 C 56.421875 -90.539062 58.828125 -88.710938 60.984375 -86.546875 C 63.148438 -84.390625 64.894531 -81.875 66.21875 -79 C 68.207031 -74.90625 69.8125 -70.5625 71.03125 -65.96875 C 72.25 -61.375 73.191406 -56.671875 73.859375 -51.859375 C 74.523438 -47.046875 74.96875 -42.234375 75.1875 -37.421875 C 75.40625 -32.609375 75.515625 -27.9375 75.515625 -23.40625 Z M 48.96875 -28.71875 L 48.46875 -40 C 48.238281 -40 48.015625 -40.023438 47.796875 -40.078125 C 47.578125 -40.140625 47.359375 -40.171875 47.140625 -40.171875 C 45.703125 -40.171875 43.898438 -39.804688 41.734375 -39.078125 C 39.578125 -38.359375 37.503906 -37.363281 35.515625 -36.09375 C 33.523438 -34.820312 31.835938 -33.410156 30.453125 -31.859375 C 29.066406 -30.316406 28.375 -28.710938 28.375 -27.046875 C 28.375 -25.503906 28.925781 -24.453125 30.03125 -23.890625 C 31.144531 -23.335938 32.421875 -23.0625 33.859375 -23.0625 C 36.296875 -23.0625 38.894531 -23.695312 41.65625 -24.96875 C 44.425781 -26.25 46.863281 -27.5 48.96875 -28.71875 Z M 48.96875 -28.71875 "/></g></g></g><g fill="#e1c340" fill-opacity="1"><g transform="translate(747.756004, 207.077818)"><g><path d="M 43.65625 5.96875 C 35.789062 5.96875 29.671875 4.941406 25.296875 2.890625 C 20.929688 0.847656 17.671875 -2.050781 15.515625 -5.8125 C 13.359375 -9.570312 12.054688 -14.109375 11.609375 -19.421875 C 11.171875 -24.734375 10.953125 -30.648438 10.953125 -37.171875 C 10.953125 -42.378906 11.117188 -47.609375 11.453125 -52.859375 C 11.785156 -58.117188 12.285156 -63.734375 12.953125 -69.703125 C 11.398438 -69.703125 10.179688 -69.675781 9.296875 -69.625 C 8.410156 -69.570312 7.691406 -69.546875 7.140625 -69.546875 C 3.597656 -69.546875 0.53125 -70.316406 -2.0625 -71.859375 C -4.664062 -73.410156 -5.96875 -75.789062 -5.96875 -79 C -5.96875 -80.988281 -5.222656 -82.757812 -3.734375 -84.3125 C -2.242188 -85.863281 -0.335938 -87.191406 1.984375 -88.296875 C 4.316406 -89.398438 6.835938 -90.285156 9.546875 -90.953125 C 12.253906 -91.617188 14.828125 -92.0625 17.265625 -92.28125 C 17.265625 -95.375 17.484375 -98.800781 17.921875 -102.5625 C 18.367188 -106.332031 19.171875 -109.847656 20.328125 -113.109375 C 21.492188 -116.367188 23.070312 -119.101562 25.0625 -121.3125 C 27.050781 -123.53125 29.597656 -124.640625 32.703125 -124.640625 C 34.472656 -124.640625 36.046875 -124.113281 37.421875 -123.0625 C 38.804688 -122.007812 39.941406 -120.679688 40.828125 -119.078125 C 41.710938 -117.472656 42.375 -115.675781 42.8125 -113.6875 C 43.257812 -111.695312 43.484375 -109.757812 43.484375 -107.875 C 43.484375 -105.664062 43.316406 -103.398438 42.984375 -101.078125 C 42.648438 -98.753906 42.039062 -95.875 41.15625 -92.4375 C 43.039062 -92.664062 44.3125 -92.804688 44.96875 -92.859375 C 45.632812 -92.910156 46.242188 -92.9375 46.796875 -92.9375 C 48.679688 -92.9375 50.644531 -92.769531 52.6875 -92.4375 C 54.738281 -92.113281 56.617188 -91.5625 58.328125 -90.78125 C 60.046875 -90.007812 61.457031 -88.988281 62.5625 -87.71875 C 63.675781 -86.445312 64.234375 -84.925781 64.234375 -83.15625 C 64.234375 -81.15625 63.429688 -79.378906 61.828125 -77.828125 C 60.222656 -76.285156 58.203125 -74.960938 55.765625 -73.859375 C 53.328125 -72.753906 50.722656 -71.894531 47.953125 -71.28125 C 45.191406 -70.675781 42.597656 -70.265625 40.171875 -70.046875 C 39.503906 -65.503906 39.03125 -61.320312 38.75 -57.5 C 38.476562 -53.6875 38.175781 -49.84375 37.84375 -45.96875 C 37.625 -44.09375 37.429688 -42.1875 37.265625 -40.25 C 37.097656 -38.3125 37.015625 -36.347656 37.015625 -34.359375 C 37.015625 -32.921875 37.066406 -31.234375 37.171875 -29.296875 C 37.285156 -27.359375 37.671875 -25.503906 38.328125 -23.734375 C 38.992188 -21.960938 40.046875 -20.441406 41.484375 -19.171875 C 42.929688 -17.898438 44.925781 -17.265625 47.46875 -17.265625 C 49.019531 -17.265625 50.625 -17.398438 52.28125 -17.671875 C 53.9375 -17.953125 55.597656 -18.09375 57.265625 -18.09375 C 60.140625 -18.09375 62.210938 -17.09375 63.484375 -15.09375 C 64.753906 -13.101562 65.390625 -10.5625 65.390625 -7.46875 C 65.390625 -5.144531 64.695312 -3.125 63.3125 -1.40625 C 61.9375 0.300781 60.195312 1.679688 58.09375 2.734375 C 55.988281 3.785156 53.632812 4.585938 51.03125 5.140625 C 48.4375 5.691406 45.976562 5.96875 43.65625 5.96875 Z M 43.65625 5.96875 "/></g></g></g><g fill="#e1c340" fill-opacity="1"><g transform="translate(811.489884, 207.077818)"><g><path d="M 66.546875 -63.734375 C 66.546875 -63.179688 66.488281 -62.597656 66.375 -61.984375 C 66.269531 -61.378906 66.109375 -60.800781 65.890625 -60.25 C 64.890625 -57.707031 63.335938 -55.578125 61.234375 -53.859375 C 59.140625 -52.140625 56.65625 -51.28125 53.78125 -51.28125 C 49.457031 -51.28125 46.523438 -53.4375 44.984375 -57.75 C 44.753906 -58.3125 44.640625 -58.953125 44.640625 -59.671875 C 44.640625 -60.390625 44.585938 -61.132812 44.484375 -61.90625 L 44.484375 -66.71875 C 44.253906 -68.269531 43.863281 -69.488281 43.3125 -70.375 C 42.757812 -71.257812 41.820312 -71.703125 40.5 -71.703125 C 38.613281 -71.703125 36.8125 -70.507812 35.09375 -68.125 C 33.382812 -65.75 31.894531 -62.925781 30.625 -59.65625 C 29.351562 -56.394531 28.328125 -53.050781 27.546875 -49.625 C 26.773438 -46.195312 26.390625 -43.429688 26.390625 -41.328125 C 26.390625 -39.671875 26.5 -37.648438 26.71875 -35.265625 C 26.9375 -32.890625 27.378906 -30.59375 28.046875 -28.375 C 28.710938 -26.164062 29.625 -24.257812 30.78125 -22.65625 C 31.945312 -21.050781 33.472656 -20.25 35.359375 -20.25 C 37.234375 -20.25 38.972656 -20.828125 40.578125 -21.984375 C 42.179688 -23.148438 43.757812 -24.507812 45.3125 -26.0625 C 46.75 -27.382812 48.320312 -28.765625 50.03125 -30.203125 C 51.75 -31.640625 53.71875 -32.359375 55.9375 -32.359375 C 58.695312 -32.359375 60.878906 -31.363281 62.484375 -29.375 C 64.085938 -27.382812 64.890625 -25.117188 64.890625 -22.578125 C 64.890625 -18.804688 63.894531 -15.289062 61.90625 -12.03125 C 59.914062 -8.769531 57.425781 -5.945312 54.4375 -3.5625 C 51.445312 -1.1875 48.125 0.691406 44.46875 2.078125 C 40.820312 3.460938 37.34375 4.15625 34.03125 4.15625 C 28.050781 4.15625 22.984375 2.660156 18.828125 -0.328125 C 14.679688 -3.316406 11.335938 -7.109375 8.796875 -11.703125 C 6.253906 -16.296875 4.425781 -21.300781 3.3125 -26.71875 C 2.207031 -32.144531 1.65625 -37.289062 1.65625 -42.15625 C 1.65625 -47.800781 2.429688 -53.914062 3.984375 -60.5 C 5.535156 -67.082031 7.914062 -73.191406 11.125 -78.828125 C 14.332031 -84.472656 18.453125 -89.175781 23.484375 -92.9375 C 28.515625 -96.707031 34.519531 -98.59375 41.5 -98.59375 C 45.8125 -98.59375 49.539062 -97.648438 52.6875 -95.765625 C 55.84375 -93.878906 58.441406 -91.414062 60.484375 -88.375 C 62.535156 -85.332031 64.085938 -81.929688 65.140625 -78.171875 C 66.191406 -74.410156 66.71875 -70.703125 66.71875 -67.046875 C 66.71875 -66.492188 66.71875 -65.941406 66.71875 -65.390625 C 66.71875 -64.835938 66.660156 -64.285156 66.546875 -63.734375 Z M 66.546875 -63.734375 "/></g></g></g><g fill="#e1c340" fill-opacity="1"><g transform="translate(882.360619, 207.077818)"><g><path d="M 80.328125 -42.984375 C 80.328125 -41.109375 80.296875 -38.316406 80.234375 -34.609375 C 80.179688 -30.898438 80.015625 -27.023438 79.734375 -22.984375 C 79.460938 -18.941406 79.101562 -15.125 78.65625 -11.53125 C 78.21875 -7.9375 77.671875 -5.3125 77.015625 -3.65625 C 76.128906 -1.550781 74.960938 0.273438 73.515625 1.828125 C 72.078125 3.378906 70.144531 4.15625 67.71875 4.15625 C 63.957031 4.15625 61.242188 2.660156 59.578125 -0.328125 C 57.921875 -3.316406 56.816406 -7.023438 56.265625 -11.453125 C 55.710938 -15.878906 55.488281 -20.691406 55.59375 -25.890625 C 55.707031 -31.085938 55.65625 -35.898438 55.4375 -40.328125 C 55.21875 -44.753906 54.609375 -48.460938 53.609375 -51.453125 C 52.609375 -54.441406 50.78125 -55.9375 48.125 -55.9375 C 44.476562 -55.9375 41.6875 -55.351562 39.75 -54.1875 C 37.8125 -53.03125 36.425781 -51.507812 35.59375 -49.625 C 34.769531 -47.738281 34.273438 -45.578125 34.109375 -43.140625 C 33.941406 -40.710938 33.75 -38.171875 33.53125 -35.515625 C 33.300781 -32.972656 33.128906 -29.539062 33.015625 -25.21875 C 32.910156 -20.90625 32.414062 -16.644531 31.53125 -12.4375 C 30.644531 -8.238281 29.175781 -4.617188 27.125 -1.578125 C 25.082031 1.460938 22.070312 2.984375 18.09375 2.984375 C 15.65625 2.984375 13.6875 2.039062 12.1875 0.15625 C 10.695312 -1.71875 9.507812 -4.148438 8.625 -7.140625 C 7.738281 -10.128906 7.101562 -13.445312 6.71875 -17.09375 C 6.332031 -20.75 6.109375 -24.316406 6.046875 -27.796875 C 5.992188 -31.285156 5.992188 -34.46875 6.046875 -37.34375 C 6.109375 -40.21875 6.140625 -42.375 6.140625 -43.8125 C 6.140625 -46.03125 6.222656 -49.679688 6.390625 -54.765625 C 6.554688 -59.859375 6.914062 -65.53125 7.46875 -71.78125 C 8.019531 -78.03125 8.738281 -84.472656 9.625 -91.109375 C 10.507812 -97.753906 11.671875 -103.8125 13.109375 -109.28125 C 14.546875 -114.757812 16.285156 -119.210938 18.328125 -122.640625 C 20.378906 -126.078125 22.789062 -127.738281 25.5625 -127.625 C 27.332031 -127.519531 28.851562 -126.75 30.125 -125.3125 C 31.394531 -123.875 32.441406 -122.019531 33.265625 -119.75 C 34.097656 -117.476562 34.789062 -115.015625 35.34375 -112.359375 C 35.90625 -109.703125 36.320312 -107.070312 36.59375 -104.46875 C 36.875 -101.875 37.039062 -99.46875 37.09375 -97.25 C 37.144531 -95.039062 37.171875 -93.328125 37.171875 -92.109375 C 37.171875 -89.234375 37.113281 -86.359375 37 -83.484375 C 36.894531 -80.609375 36.734375 -77.734375 36.515625 -74.859375 C 39.054688 -78.285156 42.457031 -81.101562 46.71875 -83.3125 C 50.976562 -85.53125 55.265625 -86.640625 59.578125 -86.640625 C 65.109375 -86.640625 69.285156 -85.117188 72.109375 -82.078125 C 74.929688 -79.035156 76.953125 -75.269531 78.171875 -70.78125 C 79.390625 -66.300781 80.050781 -61.546875 80.15625 -56.515625 C 80.269531 -51.484375 80.328125 -46.972656 80.328125 -42.984375 Z M 80.328125 -42.984375 "/></g></g></g><g clip-path="url(#74077aaa75)"><path fill="#e1c340" d="M 375.199219 168.707031 C 375.222656 167.902344 375.246094 167.125 375.246094 166.320312 C 375.246094 164.792969 375.199219 163.285156 375.074219 161.78125 C 375.023438 160.976562 374.921875 160.199219 374.847656 159.421875 C 373.800781 150.6875 370.777344 142.53125 366.257812 135.457031 C 366.582031 133.75 367.957031 126.347656 368.703125 118.089844 C 369.878906 104.964844 368.855469 96.761719 365.582031 93.023438 C 364.382812 91.640625 362.660156 90.863281 360.636719 90.761719 C 350.996094 90.238281 332.84375 105.871094 328.246094 109.984375 C 325.023438 109.410156 321.703125 109.105469 318.308594 109.105469 C 314.910156 109.105469 311.589844 109.410156 308.367188 109.984375 C 303.773438 105.871094 285.59375 90.210938 275.976562 90.761719 C 273.953125 90.863281 272.257812 91.667969 271.03125 93.023438 C 267.734375 96.761719 266.738281 104.964844 267.910156 118.089844 C 268.660156 126.371094 270.035156 133.75 270.359375 135.457031 C 265.835938 142.53125 262.816406 150.664062 261.765625 159.421875 C 261.667969 160.199219 261.59375 160.976562 261.542969 161.78125 C 261.417969 163.285156 261.367188 164.792969 261.367188 166.320312 C 261.367188 167.125 261.390625 167.902344 261.417969 168.707031 C 261.390625 168.882812 261.367188 169.03125 261.367188 169.207031 C 261.367188 169.484375 261.417969 169.757812 261.492188 170.011719 C 261.617188 171.96875 261.84375 173.875 262.191406 175.707031 C 262.464844 177.210938 262.816406 178.691406 263.265625 180.125 C 265.789062 188.582031 270.882812 195.40625 278.449219 200.449219 C 288.1875 206.949219 301.601562 210.210938 318.308594 210.210938 C 335.039062 210.210938 348.449219 206.925781 358.164062 200.449219 C 365.734375 195.40625 370.828125 188.605469 373.347656 180.125 C 373.773438 178.691406 374.148438 177.238281 374.421875 175.707031 C 374.773438 173.875 374.996094 171.992188 375.121094 170.011719 C 375.199219 169.757812 375.246094 169.484375 375.246094 169.207031 C 375.246094 169.058594 375.246094 168.882812 375.199219 168.707031 Z M 360.363281 95.957031 C 361.289062 96.007812 361.585938 96.335938 361.6875 96.460938 C 365.359375 100.625 364.035156 117.3125 362.011719 129.660156 C 359.066406 126.097656 355.691406 122.910156 351.972656 120.171875 C 352.621094 117.113281 354.320312 108.054688 351.746094 108.054688 C 348.652344 108.054688 342.90625 114.601562 342.90625 114.601562 L 343.207031 114.828125 C 340.410156 113.449219 337.511719 112.320312 334.492188 111.414062 C 342.882812 104.3125 354.945312 95.65625 360.363281 95.957031 Z M 274.929688 96.484375 C 275.027344 96.359375 275.328125 96.035156 276.25 95.984375 C 281.644531 95.683594 293.734375 104.339844 302.125 111.464844 C 299.101562 112.371094 296.179688 113.523438 293.382812 114.902344 L 293.707031 114.652344 C 293.707031 114.652344 287.964844 108.101562 284.867188 108.101562 C 282.296875 108.101562 283.992188 117.164062 284.644531 120.222656 C 280.921875 122.960938 277.550781 126.144531 274.605469 129.710938 C 272.582031 117.339844 271.257812 100.652344 274.929688 96.484375 Z M 370.054688 166.621094 L 353.121094 166.621094 C 351.695312 166.621094 350.523438 167.800781 350.523438 169.234375 C 350.523438 170.664062 351.695312 171.84375 353.121094 171.84375 L 369.753906 171.84375 C 369.628906 172.921875 369.480469 173.976562 369.253906 175.03125 L 359.539062 175.03125 C 358.089844 175.03125 356.941406 176.207031 356.941406 177.640625 C 356.941406 179.09375 358.089844 180.25 359.539062 180.25 L 367.832031 180.25 C 365.484375 186.796875 361.3125 192.117188 355.292969 196.109375 C 346.550781 201.929688 333.765625 205.015625 318.28125 205.015625 C 302.796875 205.015625 290.039062 201.929688 281.296875 196.109375 C 275.304688 192.117188 271.105469 186.796875 268.757812 180.25 L 277.050781 180.25 C 278.472656 180.25 279.648438 179.09375 279.648438 177.640625 C 279.648438 176.207031 278.472656 175.03125 277.050781 175.03125 L 267.359375 175.03125 C 267.160156 174 266.988281 172.945312 266.863281 171.84375 L 283.496094 171.84375 C 284.917969 171.84375 286.089844 170.664062 286.089844 169.234375 C 286.089844 167.800781 284.917969 166.621094 283.496094 166.621094 L 266.5625 166.621094 C 266.5625 166.523438 266.5625 166.421875 266.5625 166.320312 C 266.5625 165.367188 266.585938 164.390625 266.636719 163.4375 L 277.074219 163.4375 C 278.5 163.4375 279.671875 162.257812 279.671875 160.828125 C 279.671875 159.371094 278.5 158.214844 277.074219 158.214844 L 267.1875 158.214844 C 270.507812 136.988281 286.640625 120 307.367188 115.480469 L 307.367188 124.164062 C 307.367188 125.59375 308.542969 126.773438 309.964844 126.773438 C 311.390625 126.773438 312.5625 125.59375 312.5625 124.164062 L 312.5625 114.652344 C 313.613281 114.527344 314.660156 114.453125 315.734375 114.402344 L 315.734375 129.859375 C 315.734375 131.289062 316.910156 132.46875 318.332031 132.46875 C 319.757812 132.46875 320.929688 131.289062 320.929688 129.859375 L 320.929688 114.402344 C 322.003906 114.453125 323.050781 114.550781 324.101562 114.652344 L 324.101562 124.164062 C 324.101562 125.59375 325.273438 126.773438 326.699219 126.773438 C 328.121094 126.773438 329.296875 125.59375 329.296875 124.164062 L 329.296875 115.480469 C 350.023438 120 366.15625 136.988281 369.480469 158.214844 L 359.589844 158.214844 C 358.140625 158.214844 356.992188 159.371094 356.992188 160.828125 C 356.992188 162.257812 358.140625 163.4375 359.589844 163.4375 L 370.027344 163.4375 C 370.078125 164.390625 370.101562 165.34375 370.101562 166.320312 C 370.078125 166.421875 370.078125 166.523438 370.054688 166.621094 Z M 370.054688 166.621094 " fill-opacity="1" fill-rule="nonzero"/></g><path fill="#e1c340" d="M 308.691406 154.152344 C 305.796875 147.777344 297.304688 143.835938 289.761719 145.394531 C 286.214844 146.121094 282.769531 147.777344 278.972656 145.96875 C 280.773438 149.683594 283.792969 150.3125 287.089844 149.660156 C 294.007812 148.253906 300.226562 149.984375 306.121094 153.5 C 306.871094 153.949219 307.59375 154.929688 308.691406 154.152344 Z M 308.691406 154.152344 " fill-opacity="1" fill-rule="nonzero"/><path fill="#e1c340" d="M 346.851562 145.394531 C 339.308594 143.835938 330.820312 147.777344 327.921875 154.152344 C 329.019531 154.929688 329.746094 153.949219 330.496094 153.5 C 336.386719 149.984375 342.605469 148.253906 349.523438 149.660156 C 352.796875 150.3125 355.84375 149.683594 357.640625 145.96875 C 353.84375 147.777344 350.398438 146.121094 346.851562 145.394531 Z M 346.851562 145.394531 " fill-opacity="1" fill-rule="nonzero"/><path fill="#e1c340" d="M 337.539062 175.882812 C 336.589844 175.882812 335.8125 176.660156 335.8125 177.613281 C 335.8125 182.15625 332.117188 185.871094 327.597656 185.871094 C 324.25 185.871094 321.105469 183.613281 319.929688 180.398438 C 319.929688 180.375 319.90625 180.347656 319.90625 180.324219 C 319.878906 180.273438 319.855469 180.222656 319.832031 180.148438 C 319.804688 180.097656 319.78125 180.046875 319.757812 180 C 319.730469 179.972656 319.730469 179.949219 319.707031 179.921875 C 322.429688 179.296875 324.449219 176.859375 324.449219 173.925781 C 324.449219 170.511719 321.703125 173.925781 318.332031 173.925781 C 314.960938 173.925781 312.214844 170.511719 312.214844 173.925781 C 312.214844 176.835938 314.238281 179.296875 316.957031 179.921875 C 316.933594 179.949219 316.933594 179.972656 316.910156 180 C 316.882812 180.046875 316.859375 180.097656 316.835938 180.148438 C 316.808594 180.199219 316.785156 180.25 316.757812 180.300781 C 316.757812 180.324219 316.734375 180.347656 316.734375 180.375 C 315.558594 183.585938 312.414062 185.84375 309.066406 185.84375 C 304.546875 185.84375 300.851562 182.132812 300.851562 177.589844 C 300.851562 176.636719 300.078125 175.859375 299.128906 175.859375 C 298.179688 175.859375 297.40625 176.636719 297.40625 177.589844 C 297.40625 184.0625 302.648438 189.308594 309.066406 189.308594 C 312.714844 189.308594 316.160156 187.449219 318.355469 184.539062 C 320.53125 187.449219 324 189.308594 327.648438 189.308594 C 334.089844 189.308594 339.308594 184.039062 339.308594 177.589844 C 339.261719 176.660156 338.484375 175.882812 337.539062 175.882812 Z M 337.539062 175.882812 " fill-opacity="1" fill-rule="nonzero"/></svg>